<svg xmlns="http://www.w3.org/2000/svg" fill="none" viewBox="-0.5 -0.5 14 14" height="14" width="14"><g id="button-fast-forward-2--button-controls-fast-forward-movies-television-video-tv"><path id="Vector" stroke="#000" stroke-linecap="round" stroke-linejoin="round" d="M0.4642903571428572 9.555c-0.00044942857142857143 0.11811428571428573 0.031298428571428574 0.23418571428571427 0.091832 0.3355857142857143 0.06053357142857143 0.10149285714285713 0.14756485714285714 0.18450714285714284 0.2517394285714286 0.24012857142857144 0.102401 0.061378571428571435 0.21954678571428574 0.09378571428571429 0.3389332142857143 0.09378571428571429 0.11937714285714286 0 0.23652571428571428 -0.03240714285714286 0.3389285714285714 -0.09378571428571429l4.717142857142857 -3.0642485714285717c0.09202142857142857 -0.05876000000000001 0.167765 -0.13975 0.2202292857142857 -0.235495 0.052473571428571425 -0.09575428571428572 0.07997785714285714 -0.2031807142857143 0.07997785714285714 -0.31236214285714287 0 -0.10918142857142858 -0.027504285714285717 -0.21660785714285716 -0.07997785714285714 -0.31236214285714287 -0.05246428571428572 -0.09575428571428572 -0.12820785714285715 -0.17674428571428574 -0.2202292857142857 -0.235495l-4.717142857142857 -3.0828571428571427c-0.10240285714285714 -0.061378571428571435 -0.2195514285714286 -0.093795 -0.3389285714285714 -0.093795 -0.11938642857142856 0 -0.23653221428571428 0.03241642857142857 -0.3389332142857143 0.093795 -0.10417457142857142 0.055686428571428574 -0.19120585714285715 0.13871000000000003 -0.2517394285714286 0.24013785714285715 -0.06053357142857143 0.10143714285714286 -0.09228142857142857 0.21745285714285714 -0.091832 0.33557642857142855V9.555Z" stroke-width="1"></path><path id="Vector_2" stroke="#000" stroke-linecap="round" stroke-linejoin="round" d="M6.496945 9.555c-0.000455 0.11811428571428573 0.031302142857142855 0.23418571428571427 0.09183571428571428 0.3355857142857143 0.06053357142857143 0.10149285714285713 0.14755928571428573 0.18450714285714284 0.2517357142857143 0.24012857142857144 0.10240285714285714 0.061378571428571435 0.21954214285714285 0.09378571428571429 0.3389285714285714 0.09378571428571429s0.23652571428571428 -0.03240714285714286 0.3389285714285714 -0.09378571428571429l4.717133571428572 -3.0642485714285717c0.09202142857142857 -0.05876000000000001 0.16779285714285716 -0.13975 0.22025714285714285 -0.235495 0.05246428571428572 -0.09575428571428572 0.07995 -0.2031807142857143 0.07995 -0.31236214285714287 0 -0.10918142857142858 -0.027485714285714287 -0.21660785714285716 -0.07995 -0.31236214285714287 -0.05246428571428572 -0.09575428571428572 -0.1282357142857143 -0.17674428571428574 -0.22025714285714285 -0.235495l-4.717133571428572 -3.0828571428571427c-0.10240285714285714 -0.061378571428571435 -0.21954214285714285 -0.093795 -0.3389285714285714 -0.093795s-0.23652571428571428 0.03241642857142857 -0.3389285714285714 0.093795c-0.10143714285714286 0.05417285714285715 -0.18668 0.13429 -0.24703714285714287 0.23217071428571426 -0.06035714285714286 0.09787142857142857 -0.093665 0.210015 -0.09653428571428571 0.3249721428571429V9.555Z" stroke-width="1"></path><path id="Vector_3" stroke="#000" stroke-linecap="round" stroke-linejoin="round" d="M12.535714285714286 2.3214285714285716v8.357142857142858" stroke-width="1"></path></g></svg>