<svg xmlns="http://www.w3.org/2000/svg" fill="none" viewBox="-0.5 -0.5 14 14" height="14" width="14"><g id="button-pause-2--button-television-buttons-movies-tv-pause-video-controls"><path id="Vector" stroke="#000" stroke-linecap="round" stroke-linejoin="round" d="M3.7142857142857144 0.4642857142857143H1.3928571428571428c-0.5128360714285715 0 -0.9285714285714286 0.41573535714285714 -0.9285714285714286 0.9285714285714286v10.214285714285715c0 0.51285 0.41573535714285714 0.9285714285714286 0.9285714285714286 0.9285714285714286H3.7142857142857144c0.5128314285714286 0 0.9285714285714286 -0.4157214285714286 0.9285714285714286 -0.9285714285714286v-10.214285714285715c0 -0.5128360714285715 -0.41574 -0.9285714285714286 -0.9285714285714286 -0.9285714285714286Z" stroke-width="1"></path><path id="Vector_2" stroke="#000" stroke-linecap="round" stroke-linejoin="round" d="M11.607142857142858 0.4642857142857143H9.285714285714286c-0.5128314285714286 0 -0.9285714285714286 0.41573535714285714 -0.9285714285714286 0.9285714285714286v10.214285714285715c0 0.51285 0.41574 0.9285714285714286 0.9285714285714286 0.9285714285714286h2.3214285714285716c0.51285 0 0.9285714285714286 -0.4157214285714286 0.9285714285714286 -0.9285714285714286v-10.214285714285715c0 -0.5128360714285715 -0.4157214285714286 -0.9285714285714286 -0.9285714285714286 -0.9285714285714286Z" stroke-width="1"></path></g></svg>