<svg xmlns="http://www.w3.org/2000/svg" fill="none" viewBox="-0.5 -0.5 14 14" height="14" width="14"><g id="horizontal-menu-circle--navigation-dots-three-circle-button-horizontal-menu"><path id="Vector" stroke="#000" stroke-linecap="round" stroke-linejoin="round" d="M6.5 12.535714285714286c3.3334785714285715 0 6.035714285714286 -2.702235714285714 6.035714285714286 -6.035714285714286C12.535714285714286 3.1665678571428573 9.833478571428572 0.4642857142857143 6.5 0.4642857142857143 3.1665678571428573 0.4642857142857143 0.4642857142857143 3.1665678571428573 0.4642857142857143 6.5c0 3.3334785714285715 2.702282142857143 6.035714285714286 6.035714285714286 6.035714285714286Z" stroke-width="1"></path><g id="Group 2606"><path id="Ellipse 1111" stroke="#000" stroke-linecap="round" stroke-linejoin="round" d="M3.7142857142857144 6.732142857142858c-0.12820785714285715 0 -0.23214285714285715 -0.103935 -0.23214285714285715 -0.23214285714285715s0.103935 -0.23214285714285715 0.23214285714285715 -0.23214285714285715" stroke-width="1"></path><path id="Ellipse 1112" stroke="#000" stroke-linecap="round" stroke-linejoin="round" d="M3.7142857142857144 6.732142857142858c0.12820785714285715 0 0.23214285714285715 -0.103935 0.23214285714285715 -0.23214285714285715s-0.103935 -0.23214285714285715 -0.23214285714285715 -0.23214285714285715" stroke-width="1"></path></g><g id="Group 2632"><path id="Ellipse 1111_2" stroke="#000" stroke-linecap="round" stroke-linejoin="round" d="M6.5 6.732142857142858c-0.12820785714285715 0 -0.23214285714285715 -0.103935 -0.23214285714285715 -0.23214285714285715s0.103935 -0.23214285714285715 0.23214285714285715 -0.23214285714285715" stroke-width="1"></path><path id="Ellipse 1112_2" stroke="#000" stroke-linecap="round" stroke-linejoin="round" d="M6.5 6.732142857142858c0.12820785714285715 0 0.23214285714285715 -0.103935 0.23214285714285715 -0.23214285714285715s-0.103935 -0.23214285714285715 -0.23214285714285715 -0.23214285714285715" stroke-width="1"></path></g><g id="Group 2633"><path id="Ellipse 1111_3" stroke="#000" stroke-linecap="round" stroke-linejoin="round" d="M9.285714285714286 6.732142857142858c-0.12820785714285715 0 -0.23214285714285715 -0.103935 -0.23214285714285715 -0.23214285714285715s0.103935 -0.23214285714285715 0.23214285714285715 -0.23214285714285715" stroke-width="1"></path><path id="Ellipse 1112_3" stroke="#000" stroke-linecap="round" stroke-linejoin="round" d="M9.285714285714286 6.732142857142858c0.1282357142857143 0 0.23214285714285715 -0.103935 0.23214285714285715 -0.23214285714285715s-0.10390714285714286 -0.23214285714285715 -0.23214285714285715 -0.23214285714285715" stroke-width="1"></path></g></g></svg>