<svg xmlns="http://www.w3.org/2000/svg" fill="none" viewBox="-0.5 -0.5 14 14" height="14" width="14"><g id="warning-octagon--frame-alert-warning-octagon-exclamation-caution"><path id="Vector" stroke="#000" stroke-linecap="round" stroke-linejoin="round" d="M9.093397857142858 12.263735714285716c-0.174135 0.17410714285714285 -0.4103264285714286 0.27197857142857146 -0.6565928571428571 0.27197857142857146H4.563195c-0.24626642857142858 0 -0.48245785714285716 -0.09787142857142857 -0.6565928571428571 -0.27197857142857146L0.7362577857142857 9.093397857142858C0.5621172142857144 8.919262857142856 0.4642857142857143 8.683071428571429 0.4642857142857143 8.436805V4.563195c0 -0.24626642857142858 0.09783150000000002 -0.48245785714285716 0.27197207142857144 -0.6565928571428571L3.906602142857143 0.7362577857142857C4.080737142857143 0.5621172142857144 4.316928571428572 0.4642857142857143 4.563195 0.4642857142857143h3.8736099999999998c0.24626642857142858 0 0.48245785714285716 0.09783150000000002 0.6565928571428571 0.27197207142857144L12.263735714285716 3.906602142857143c0.17410714285714285 0.174135 0.27197857142857146 0.4103264285714286 0.27197857142857146 0.6565928571428571v3.8736099999999998c0 0.24626642857142858 -0.09787142857142857 0.48245785714285716 -0.27197857142857146 0.6565928571428571L9.093397857142858 12.263735714285716Z" stroke-width="1"></path><path id="Vector_2" stroke="#000" stroke-linecap="round" stroke-linejoin="round" d="M6.5 3.7142857142857144v3.017857142857143" stroke-width="1"></path><g id="Group 2605"><path id="Ellipse 1111" stroke="#000" stroke-linecap="round" stroke-linejoin="round" d="M6.5 9.285714285714286c-0.12820785714285715 0 -0.23214285714285715 -0.103935 -0.23214285714285715 -0.23214285714285715s0.103935 -0.23214285714285715 0.23214285714285715 -0.23214285714285715" stroke-width="1"></path><path id="Ellipse 1112" stroke="#000" stroke-linecap="round" stroke-linejoin="round" d="M6.5 9.285714285714286c0.12820785714285715 0 0.23214285714285715 -0.103935 0.23214285714285715 -0.23214285714285715S6.628207857142857 8.821428571428571 6.5 8.821428571428571" stroke-width="1"></path></g></g></svg>