<svg xmlns="http://www.w3.org/2000/svg" fill="none" viewBox="-0.5 -0.5 14 14" height="14" width="14"><g id="warning-triangle--frame-alert-warning-triangle-exclamation-caution"><path id="Vector" stroke="#000" stroke-linecap="round" stroke-linejoin="round" d="M7.326456428571429 0.974907142857143C7.248530714285715 0.8228043571428572 7.1301378571428575 0.6951582857142857 6.984324285714286 0.6060247142857144 6.838510714285714 0.5168902142857144 6.670922142857143 0.46972621428571426 6.500027857142857 0.46972621428571426c-0.17090357142857143 0 -0.3384921428571429 0.047164 -0.48430571428571434 0.1362985 -0.14581357142857143 0.08913357142857144 -0.26420642857142856 0.21677964285714285 -0.3421228571428571 0.3688824285714286l-5.107146571428571 10.214285714285715c-0.07123071428571429 0.14132857142857144 -0.105144 0.2985357142857143 -0.09851957142857143 0.45676428571428573 0.006624428571428571 0.1581357142857143 0.05356742857142858 0.3119071428571428 0.13637092857142857 0.44682857142857146 0.08280257142857143 0.13492142857142858 0.19871707142857142 0.24644285714285719 0.33673807142857143 0.3238857142857143 0.13801357142857146 0.07753571428571429 0.29354928571428573 0.11848571428571428 0.45184285714285716 0.11895H11.607142857142858c0.15832142857142859 -0.00046428571428571433 0.3138571428571429 -0.041414285714285716 0.45184285714285716 -0.11895 0.13807857142857144 -0.07744285714285715 0.25396428571428575 -0.1889642857142857 0.33679285714285717 -0.3238857142857143 0.08273571428571429 -0.13492142857142858 0.12972142857142857 -0.28869285714285714 0.13631428571428572 -0.44682857142857146 0.006685714285714286 -0.15822857142857144 -0.0273 -0.3154357142857143 -0.09852142857142858 -0.45676428571428573l-5.107115 -10.214285714285715Z" stroke-width="1"></path><path id="Vector_2" stroke="#000" stroke-linecap="round" stroke-linejoin="round" d="M6.5 4.642857142857143v3.017857142857143" stroke-width="1"></path><g id="Group 2605"><path id="Ellipse 1111" stroke="#000" stroke-linecap="round" stroke-linejoin="round" d="M6.5 10.214285714285715c-0.12820785714285715 0 -0.23214285714285715 -0.10390714285714286 -0.23214285714285715 -0.23214285714285715s0.103935 -0.23214285714285715 0.23214285714285715 -0.23214285714285715" stroke-width="1"></path><path id="Ellipse 1112" stroke="#000" stroke-linecap="round" stroke-linejoin="round" d="M6.5 10.214285714285715c0.12820785714285715 0 0.23214285714285715 -0.10390714285714286 0.23214285714285715 -0.23214285714285715s-0.103935 -0.23214285714285715 -0.23214285714285715 -0.23214285714285715" stroke-width="1"></path></g></g></svg>